<?xml version="1.0" encoding="UTF-8" standalone="no" ?>
<!DOCTYPE svg PUBLIC "-//W3C//DTD SVG 1.1//EN" "http://www.w3.org/Graphics/SVG/1.1/DTD/svg11.dtd">
<svg xmlns="http://www.w3.org/2000/svg" xmlns:xlink="http://www.w3.org/1999/xlink" version="1.1" width="400" height="400" viewBox="0 0 400 400" xml:space="preserve">
<desc>Created with Fabric.js 3.6.2</desc>
<defs>
</defs>
<g transform="matrix(4.17 0 0 4.17 200 207.82)" id="surface1"  >
<path style="stroke: none; stroke-width: 1; stroke-dasharray: none; stroke-linecap: butt; stroke-dashoffset: 0; stroke-linejoin: miter; stroke-miterlimit: 4; fill: rgb(69,90,100); fill-rule: nonzero; opacity: 1;"  transform=" translate(-24, -25.88)" d="M 30 41 C 30 41.554688 29.554688 42 29 42 L 19 42 C 18.445313 42 18 41.554688 18 41 L 18 10 C 18 9.445313 18.445313 10 19 10 L 29 10 C 29.554688 10 30 9.445313 30 10 Z" stroke-linecap="round" />
</g>
<g transform="matrix(4.17 0 0 4.17 200 207.83)" id="surface1"  >
<path style="stroke: none; stroke-width: 1; stroke-dasharray: none; stroke-linecap: butt; stroke-dashoffset: 0; stroke-linejoin: miter; stroke-miterlimit: 4; fill: rgb(69,90,100); fill-rule: nonzero; opacity: 1;"  transform=" translate(-24, -25.88)" d="M 42 29.878906 C 42 30.429688 41.554688 30.878906 41 30.878906 L 7 30.878906 C 6.445313 30.878906 6 30.429688 6 29.878906 L 6 21.878906 C 6 21.324219 6.445313 20.878906 7 20.878906 L 41 20.878906 C 41.554688 20.878906 42 21.324219 42 21.878906 Z" stroke-linecap="round" />
</g>
<g transform="matrix(4.17 0 0 4.17 200 191.67)" id="surface1"  >
<path style="stroke: none; stroke-width: 1; stroke-dasharray: none; stroke-linecap: butt; stroke-dashoffset: 0; stroke-linejoin: miter; stroke-miterlimit: 4; fill: rgb(96,125,139); fill-rule: nonzero; opacity: 1;"  transform=" translate(-24, -22)" d="M 30 37 C 30 37.554688 29.554688 38 29 38 L 19 38 C 18.445313 38 18 37.554688 18 37 L 18 7 C 18 6.445313 18.445313 6 19 6 L 29 6 C 29.554688 6 30 6.445313 30 7 Z" stroke-linecap="round" />
</g>
<g transform="matrix(4.17 0 0 4.17 200 191.67)" id="surface1"  >
<path style="stroke: none; stroke-width: 1; stroke-dasharray: none; stroke-linecap: butt; stroke-dashoffset: 0; stroke-linejoin: miter; stroke-miterlimit: 4; fill: rgb(96,125,139); fill-rule: nonzero; opacity: 1;"  transform=" translate(-24, -22)" d="M 42 26 C 42 26.554688 41.554688 27 41 27 L 7 27 C 6.445313 27 6 26.554688 6 26 L 6 18 C 6 17.445313 6.445313 17 7 17 L 41 17 C 41.554688 17 42 17.445313 42 18 Z" stroke-linecap="round" />
</g>
</svg>